<svg width="32" height="32" viewBox="0 0 32 32" fill="#53FC18" xmlns="http://www.w3.org/2000/svg" class="size-6 shrink-0 grow-0"><path d="M5.00215 17.5057L12.6433 13.9772C13.2297 13.7058 13.7024 13.233 13.9737 12.6464L17.5011 5.00286L21.0285 12.6464C21.2998 13.233 21.7724 13.7058 22.3589 13.9772L30 17.5057L22.3589 21.0342C21.7724 21.3056 21.2998 21.7784 21.0285 22.365L17.5011 30.0085L13.9737 22.365C13.7024 21.7784 13.2297 21.3056 12.6433 21.0342L4.9934 17.5057H5.00215Z"></path><path d="M2 7.37587L5.29104 5.86117C5.54487 5.74735 5.74618 5.54597 5.85997 5.29207L7.37419 2L8.88842 5.29207C9.0022 5.54597 9.20352 5.74735 9.45735 5.86117L12.7484 7.37587L9.45735 8.89057C9.20352 9.0044 9.0022 9.20577 8.88842 9.45968L7.37419 12.7517L5.85997 9.46844C5.74618 9.21453 5.54487 9.01315 5.29104 8.89933L2 7.38463V7.37587Z"></path></svg>