<svg width="39" height="15" viewBox="0 0 39 15" fill="none" xmlns="http://www.w3.org/2000/svg">
<g clip-path="url(#clip0_3_257)">
<path d="M35.17 0H3C1.34315 0 0 1.34315 0 3V12C0 13.6569 1.34315 15 3 15H35.17C36.8269 15 38.17 13.6569 38.17 12V3C38.17 1.34315 36.8269 0 35.17 0Z" fill="#5865F2"/>
<path fill-rule="evenodd" clip-rule="evenodd" d="M12.2 4.19724C12.3222 4.32186 12.3906 4.4894 12.3906 4.6639C12.3906 4.83841 12.3222 5.00595 12.2 5.13057L6.86667 10.4639C6.74205 10.5861 6.5745 10.6545 6.4 10.6545C6.2255 10.6545 6.05795 10.5861 5.93333 10.4639L3.26667 7.79724C3.19026 7.73993 3.12705 7.66687 3.08133 7.58301C3.03561 7.49915 3.00845 7.40644 3.00168 7.31116C2.99491 7.21589 3.00869 7.12027 3.04209 7.03079C3.07549 6.9413 3.12772 6.86004 3.19526 6.7925C3.2628 6.72496 3.34406 6.67272 3.43355 6.63932C3.52303 6.60593 3.61865 6.59214 3.71393 6.59892C3.8092 6.60569 3.90191 6.63285 3.98577 6.67857C4.06963 6.72429 4.14269 6.78749 4.2 6.8639L6.4 9.05724L11.2667 4.19057C11.3913 4.06842 11.5588 4 11.7333 4C11.9078 4 12.0754 4.06842 12.2 4.19057V4.19724Z" fill="white"/>
<path d="M15.7 11V4.1H18.75C19.31 4.1 19.76 4.26 20.1 4.58C20.4467 4.9 20.62 5.32333 20.62 5.85C20.62 6.26333 20.52 6.59667 20.32 6.85C20.1267 7.09667 19.87 7.27667 19.55 7.39C19.9567 7.47667 20.2767 7.66 20.51 7.94C20.75 8.21333 20.87 8.59667 20.87 9.09C20.87 9.73 20.6767 10.21 20.29 10.53C19.9033 10.8433 19.3567 11 18.65 11H15.7ZM18.23 6.86C18.8633 6.86 19.18 6.60667 19.18 6.1C19.18 5.59333 18.8633 5.34 18.23 5.34H17.16V6.86H18.23ZM18.3 9.76C19.04 9.76 19.41 9.48333 19.41 8.93C19.41 8.37667 19.04 8.1 18.3 8.1H17.16V9.76H18.3ZM25.0733 11.14C24.4466 11.14 23.8933 10.9967 23.4133 10.71C22.9333 10.4233 22.5599 10.01 22.2933 9.47C22.0266 8.92333 21.8933 8.28333 21.8933 7.55C21.8933 6.81667 22.0266 6.18 22.2933 5.64C22.5599 5.09333 22.9333 4.67667 23.4133 4.39C23.8933 4.10333 24.4466 3.96 25.0733 3.96C25.6999 3.96 26.2533 4.10333 26.7333 4.39C27.2133 4.67667 27.5866 5.09333 27.8533 5.64C28.1199 6.18 28.2533 6.81667 28.2533 7.55C28.2533 8.28333 28.1199 8.92333 27.8533 9.47C27.5866 10.01 27.2133 10.4233 26.7333 10.71C26.2533 10.9967 25.6999 11.14 25.0733 11.14ZM25.0733 9.82C25.6333 9.82 26.0599 9.62667 26.3533 9.24C26.6466 8.84667 26.7933 8.28333 26.7933 7.55C26.7933 6.81667 26.6466 6.25667 26.3533 5.87C26.0599 5.47667 25.6333 5.28 25.0733 5.28C24.5133 5.28 24.0866 5.47667 23.7933 5.87C23.4999 6.25667 23.3533 6.81667 23.3533 7.55C23.3533 8.28333 23.4999 8.84667 23.7933 9.24C24.0866 9.62667 24.5133 9.82 25.0733 9.82ZM32.5483 11H31.0883V5.42H29.0883V4.1H34.5483V5.42H32.5483V11Z" fill="white"/>
<path d="M35.4741 0H3.02594C1.35476 0 0 1.34315 0 3V12C0 13.6569 1.35476 15 3.02594 15H35.4741C37.1452 15 38.5 13.6569 38.5 12V3C38.5 1.34315 37.1452 0 35.4741 0Z" fill="#5865F2"/>
<path fill-rule="evenodd" clip-rule="evenodd" d="M12.2 4.19724C12.3222 4.32186 12.3906 4.4894 12.3906 4.6639C12.3906 4.83841 12.3222 5.00595 12.2 5.13057L6.86667 10.4639C6.74205 10.5861 6.5745 10.6545 6.4 10.6545C6.2255 10.6545 6.05795 10.5861 5.93333 10.4639L3.26667 7.79724C3.19026 7.73993 3.12705 7.66687 3.08133 7.58301C3.03561 7.49915 3.00845 7.40644 3.00168 7.31116C2.99491 7.21589 3.00869 7.12027 3.04209 7.03079C3.07549 6.9413 3.12772 6.86004 3.19526 6.7925C3.2628 6.72496 3.34406 6.67272 3.43355 6.63932C3.52303 6.60593 3.61865 6.59214 3.71393 6.59892C3.8092 6.60569 3.90191 6.63285 3.98577 6.67857C4.06963 6.72429 4.14269 6.78749 4.2 6.8639L6.4 9.05724L11.2667 4.19057C11.3913 4.06842 11.5588 4 11.7333 4C11.9078 4 12.0754 4.06842 12.2 4.19057V4.19724Z" fill="white"/>
<path d="M18.54 11.14C17.6467 11.14 16.95 10.91 16.45 10.45C15.95 9.99 15.7 9.29333 15.7 8.36V4.1H17.16V8.24C17.16 8.76667 17.28 9.16333 17.52 9.43C17.7667 9.69 18.1067 9.82 18.54 9.82C18.9733 9.82 19.31 9.69 19.55 9.43C19.7967 9.16333 19.92 8.76667 19.92 8.24V4.1H21.38V8.36C21.38 9.29333 21.13 9.99 20.63 10.45C20.13 10.91 19.4333 11.14 18.54 11.14ZM26.3701 11H24.9101V8.15L22.6201 4.1H24.2301L25.6401 6.75L27.0501 4.1H28.6601L26.3701 8.15V11ZM31.9327 11.14C31.3527 11.14 30.8394 10.99 30.3927 10.69C29.9461 10.39 29.5994 9.97 29.3527 9.43C29.1061 8.88333 28.9827 8.25667 28.9827 7.55C28.9827 6.85 29.1127 6.23 29.3727 5.69C29.6394 5.15 30.0227 4.72667 30.5227 4.42C31.0294 4.11333 31.6327 3.96 32.3327 3.96C32.9261 3.96 33.4561 4.08667 33.9227 4.34C34.3961 4.59333 34.7527 4.95 34.9927 5.41L33.8627 6.22C33.5227 5.59333 33.0161 5.28 32.3427 5.28C31.7294 5.28 31.2594 5.48 30.9327 5.88C30.6061 6.27333 30.4427 6.83 30.4427 7.55C30.4427 8.27667 30.6061 8.83667 30.9327 9.23C31.2594 9.62333 31.7294 9.82 32.3427 9.82C32.6161 9.82 32.8661 9.77 33.0927 9.67C33.3261 9.56333 33.5061 9.42 33.6327 9.24V8.38H32.0427V7.08H35.0527V11H33.8727L33.6827 10.34C33.2894 10.8733 32.7061 11.14 31.9327 11.14Z" fill="white"/>
</g>
<defs>
<clipPath id="clip0_3_257">
<rect width="39" height="15" fill="white"/>
</clipPath>
</defs>
</svg>
