<svg width="21" height="15" viewBox="0 0 21 15" fill="none" xmlns="http://www.w3.org/2000/svg">
<g clip-path="url(#clip0_4_27)">
<mask id="mask0_4_27" style="mask-type:luminance" maskUnits="userSpaceOnUse" x="0" y="0" width="21" height="15">
<path d="M21 0H0V15H21V0Z" fill="white"/>
</mask>
<g mask="url(#mask0_4_27)">
<path d="M18.0218 0H2.86364C1.28209 0 0 1.34315 0 3V12C0 13.6569 1.28209 15 2.86364 15H18.0218C19.6034 15 20.8855 13.6569 20.8855 12V3C20.8855 1.34315 19.6034 0 18.0218 0Z" fill="#C9CDFB"/>
</g>
<path d="M7.56 11.14C6.93333 11.14 6.38 10.9967 5.9 10.71C5.42 10.4233 5.04667 10.01 4.78 9.47C4.51333 8.92333 4.38 8.28333 4.38 7.55C4.38 6.81667 4.51333 6.18 4.78 5.64C5.04667 5.09333 5.42 4.67667 5.9 4.39C6.38 4.10333 6.93333 3.96 7.56 3.96C8.18667 3.96 8.74 4.10333 9.22 4.39C9.7 4.67667 10.0733 5.09333 10.34 5.64C10.6067 6.18 10.74 6.81667 10.74 7.55C10.74 8.28333 10.6067 8.92333 10.34 9.47C10.0733 10.01 9.7 10.4233 9.22 10.71C8.74 10.9967 8.18667 11.14 7.56 11.14ZM7.56 9.82C8.12 9.82 8.54667 9.62667 8.84 9.24C9.13333 8.84667 9.28 8.28333 9.28 7.55C9.28 6.81667 9.13333 6.25667 8.84 5.87C8.54667 5.47667 8.12 5.28 7.56 5.28C7 5.28 6.57333 5.47667 6.28 5.87C5.98667 6.25667 5.84 6.81667 5.84 7.55C5.84 8.28333 5.98667 8.84667 6.28 9.24C6.57333 9.62667 7 9.82 7.56 9.82ZM14.4134 11H12.9534V8.15L10.6634 4.1H12.2734L13.6834 6.75L15.0934 4.1H16.7034L14.4134 8.15V11Z" fill="#4752C4"/>
</g>
<defs>
<clipPath id="clip0_4_27">
<rect width="21" height="15" fill="white"/>
</clipPath>
</defs>
</svg>
