<svg width="49" height="15" viewBox="0 0 49 15" fill="none" xmlns="http://www.w3.org/2000/svg">
<g clip-path="url(#clip0_4_22)">
<path d="M46.6667 0H2.33333C1.04467 0 0 1.34315 0 3V12C0 13.6569 1.04467 15 2.33333 15H46.6667C47.9553 15 49 13.6569 49 12V3C49 1.34315 47.9553 0 46.6667 0Z" fill="#5865F2"/>
<path fill-rule="evenodd" clip-rule="evenodd" d="M12.2 4.19724C12.3222 4.32186 12.3906 4.4894 12.3906 4.6639C12.3906 4.83841 12.3222 5.00595 12.2 5.13057L6.86667 10.4639C6.74205 10.5861 6.5745 10.6545 6.4 10.6545C6.2255 10.6545 6.05795 10.5861 5.93333 10.4639L3.26667 7.79724C3.19026 7.73993 3.12705 7.66687 3.08133 7.58301C3.03561 7.49915 3.00845 7.40644 3.00168 7.31116C2.99491 7.21589 3.00869 7.12027 3.04209 7.03079C3.07549 6.9413 3.12772 6.86004 3.19526 6.7925C3.2628 6.72496 3.34406 6.67272 3.43355 6.63932C3.52303 6.60593 3.61865 6.59214 3.71393 6.59892C3.8092 6.60569 3.90191 6.63285 3.98577 6.67857C4.06963 6.72429 4.14269 6.78749 4.2 6.8639L6.4 9.05724L11.2667 4.19057C11.3913 4.06842 11.5588 4 11.7333 4C11.9078 4 12.0754 4.06842 12.2 4.19057V4.19724Z" fill="white"/>
<path d="M14.7 11V4.1H17.82C18.54 4.1 19.0933 4.29333 19.48 4.68C19.8733 5.06 20.07 5.57667 20.07 6.23C20.07 6.72333 19.9533 7.14667 19.72 7.5C19.4933 7.85333 19.18 8.11333 18.78 8.28C19.4067 9.12 19.9 10.0267 20.26 11H18.65C18.33 10.1 17.9 9.26 17.36 8.48H16.16V11H14.7ZM17.56 7.16C17.8933 7.16 18.15 7.09 18.33 6.95C18.5167 6.80333 18.61 6.58333 18.61 6.29C18.61 5.99667 18.5167 5.78 18.33 5.64C18.15 5.49333 17.8933 5.42 17.56 5.42H16.16V7.16H17.56ZM26.4025 11H21.6625V4.1H26.3325V5.42H23.1225V6.78H25.8425V8.1H23.1225V9.68H26.4025V11ZM30.1912 11.14C28.9312 11.14 28.0245 10.6867 27.4712 9.78L28.5312 8.87C28.7512 9.21667 28.9912 9.47333 29.2512 9.64C29.5112 9.8 29.8212 9.88 30.1812 9.88C30.5412 9.88 30.8212 9.81 31.0212 9.67C31.2212 9.53 31.3212 9.32333 31.3212 9.05C31.3212 8.77 31.2045 8.56 30.9712 8.42C30.7445 8.28 30.3778 8.16 29.8712 8.06C29.2712 7.94 28.7678 7.71667 28.3612 7.39C27.9612 7.06333 27.7612 6.60667 27.7612 6.02C27.7612 5.60667 27.8678 5.24333 28.0812 4.93C28.2945 4.61667 28.5878 4.37667 28.9612 4.21C29.3412 4.04333 29.7712 3.96 30.2512 3.96C30.8445 3.96 31.3378 4.08 31.7312 4.32C32.1245 4.55333 32.4512 4.87 32.7112 5.27L31.7012 6.09C31.4945 5.76333 31.2778 5.53 31.0512 5.39C30.8245 5.25 30.5578 5.18 30.2512 5.18C29.9045 5.18 29.6378 5.24667 29.4512 5.38C29.2712 5.51333 29.1812 5.69333 29.1812 5.92C29.1812 6.1 29.2345 6.24667 29.3412 6.36C29.4478 6.46667 29.5945 6.55667 29.7812 6.63C29.9678 6.69667 30.2278 6.77 30.5612 6.85C31.0345 6.96333 31.4245 7.09 31.7312 7.23C32.0378 7.37 32.2845 7.57333 32.4712 7.84C32.6645 8.10667 32.7612 8.46333 32.7612 8.91C32.7612 9.63 32.5278 10.1833 32.0612 10.57C31.5945 10.95 30.9712 11.14 30.1912 11.14ZM35.4703 11H33.9803L34.7403 4.1H36.8503L37.9403 8.21L39.0303 4.1H41.0803L41.8403 11H40.3503L39.8503 5.9L38.6703 10H37.1503L35.9603 5.9L35.4703 11ZM44.8596 11H43.3996V4.1H44.8596V11ZM43.6096 3.34H42.5796L43.6996 1.9H44.5496L45.6696 3.34H44.6396L44.1296 2.74L43.6096 3.34Z" fill="white"/>
</g>
<defs>
<clipPath id="clip0_4_22">
<rect width="49" height="15" fill="white"/>
</clipPath>
</defs>
</svg>
