<svg width="57" height="15" viewBox="0 0 57 15" fill="none" xmlns="http://www.w3.org/2000/svg">
<path d="M51.1418 0H2.85815C1.27964 0 0 1.34315 0 3V12C0 13.6569 1.27964 15 2.85815 15H51.1418C52.7204 15 54 13.6569 54 12V3C54 1.34315 52.7204 0 51.1418 0Z" fill="#5865F2"/>
<path fill-rule="evenodd" clip-rule="evenodd" d="M12.2 4.19724C12.3222 4.32186 12.3906 4.4894 12.3906 4.6639C12.3906 4.83841 12.3222 5.00595 12.2 5.13057L6.86667 10.4639C6.74205 10.5861 6.5745 10.6545 6.4 10.6545C6.2255 10.6545 6.05795 10.5861 5.93333 10.4639L3.26667 7.79724C3.19026 7.73993 3.12705 7.66687 3.08133 7.58301C3.03561 7.49915 3.00845 7.40644 3.00168 7.31116C2.99491 7.21589 3.00869 7.12027 3.04209 7.03079C3.07549 6.9413 3.12772 6.86004 3.19526 6.7925C3.2628 6.72496 3.34406 6.67272 3.43355 6.63932C3.52303 6.60593 3.61865 6.59214 3.71393 6.59892C3.8092 6.60569 3.90191 6.63285 3.98577 6.67857C4.06963 6.72429 4.14269 6.78749 4.2 6.8639L6.4 9.05724L11.2667 4.19057C11.3913 4.06842 11.5588 4 11.7333 4C11.9078 4 12.0754 4.06842 12.2 4.19057V4.19724Z" fill="white"/>
<path d="M16.94 11.14C15.68 11.14 14.7733 10.6867 14.22 9.78L15.28 8.87C15.5 9.21667 15.74 9.47333 16 9.64C16.26 9.8 16.57 9.88 16.93 9.88C17.29 9.88 17.57 9.81 17.77 9.67C17.97 9.53 18.07 9.32333 18.07 9.05C18.07 8.77 17.9533 8.56 17.72 8.42C17.4933 8.28 17.1267 8.16 16.62 8.06C16.02 7.94 15.5167 7.71667 15.11 7.39C14.71 7.06333 14.51 6.60667 14.51 6.02C14.51 5.60667 14.6167 5.24333 14.83 4.93C15.0433 4.61667 15.3367 4.37667 15.71 4.21C16.09 4.04333 16.52 3.96 17 3.96C17.5933 3.96 18.0867 4.08 18.48 4.32C18.8733 4.55333 19.2 4.87 19.46 5.27L18.45 6.09C18.2433 5.76333 18.0267 5.53 17.8 5.39C17.5733 5.25 17.3067 5.18 17 5.18C16.6533 5.18 16.3867 5.24667 16.2 5.38C16.02 5.51333 15.93 5.69333 15.93 5.92C15.93 6.1 15.9833 6.24667 16.09 6.36C16.1967 6.46667 16.3433 6.55667 16.53 6.63C16.7167 6.69667 16.9767 6.77 17.31 6.85C17.7833 6.96333 18.1733 7.09 18.48 7.23C18.7867 7.37 19.0333 7.57333 19.22 7.84C19.4133 8.10667 19.51 8.46333 19.51 8.91C19.51 9.63 19.2767 10.1833 18.81 10.57C18.3433 10.95 17.72 11.14 16.94 11.14ZM22.4291 11H20.9691V4.1H22.4291V11ZM21.6991 3.35C21.4458 3.35 21.2458 3.27667 21.0991 3.13C20.9525 2.98333 20.8791 2.78333 20.8791 2.53C20.8791 2.27667 20.9525 2.07667 21.0991 1.93C21.2458 1.78333 21.4458 1.71 21.6991 1.71C21.9525 1.71 22.1525 1.78333 22.2991 1.93C22.4458 2.07667 22.5191 2.27667 22.5191 2.53C22.5191 2.78333 22.4458 2.98333 22.2991 3.13C22.1525 3.27667 21.9525 3.35 21.6991 3.35ZM26.4705 11.14C25.2105 11.14 24.3038 10.6867 23.7505 9.78L24.8105 8.87C25.0305 9.21667 25.2705 9.47333 25.5305 9.64C25.7905 9.8 26.1005 9.88 26.4605 9.88C26.8205 9.88 27.1005 9.81 27.3005 9.67C27.5005 9.53 27.6005 9.32333 27.6005 9.05C27.6005 8.77 27.4838 8.56 27.2505 8.42C27.0238 8.28 26.6571 8.16 26.1505 8.06C25.5505 7.94 25.0471 7.71667 24.6405 7.39C24.2405 7.06333 24.0405 6.60667 24.0405 6.02C24.0405 5.60667 24.1471 5.24333 24.3605 4.93C24.5738 4.61667 24.8671 4.37667 25.2405 4.21C25.6205 4.04333 26.0505 3.96 26.5305 3.96C27.1238 3.96 27.6171 4.08 28.0105 4.32C28.4038 4.55333 28.7305 4.87 28.9905 5.27L27.9805 6.09C27.7738 5.76333 27.5571 5.53 27.3305 5.39C27.1038 5.25 26.8371 5.18 26.5305 5.18C26.1838 5.18 25.9171 5.24667 25.7305 5.38C25.5505 5.51333 25.4605 5.69333 25.4605 5.92C25.4605 6.1 25.5138 6.24667 25.6205 6.36C25.7271 6.46667 25.8738 6.55667 26.0605 6.63C26.2471 6.69667 26.5071 6.77 26.8405 6.85C27.3138 6.96333 27.7038 7.09 28.0105 7.23C28.3171 7.37 28.5638 7.57333 28.7505 7.84C28.9438 8.10667 29.0405 8.46333 29.0405 8.91C29.0405 9.63 28.8071 10.1833 28.3405 10.57C27.8738 10.95 27.2505 11.14 26.4705 11.14ZM33.5596 11H32.0996V5.42H30.0996V4.1H35.5596V5.42H33.5596V11ZM41.7041 11H36.9641V4.1H41.6341V5.42H38.4241V6.78H41.1441V8.1H38.4241V9.68H41.7041V11ZM44.5027 11H43.0127L43.7727 4.1H45.8827L46.9727 8.21L48.0627 4.1H50.1127L50.8727 11H49.3827L48.8827 5.9L47.7027 10H46.1827L44.9927 5.9L44.5027 11Z" fill="white"/>
</svg>
