<svg width="48" height="15" viewBox="0 0 48 15" fill="none" xmlns="http://www.w3.org/2000/svg">
<rect width="47.7" height="15" rx="3" fill="#5865F2"/>
<path d="M4.94 11.14C3.68 11.14 2.77333 10.6867 2.22 9.78L3.28 8.87C3.5 9.21667 3.74 9.47333 4 9.64C4.26 9.8 4.57 9.88 4.93 9.88C5.29 9.88 5.57 9.81 5.77 9.67C5.97 9.53 6.07 9.32333 6.07 9.05C6.07 8.77 5.95333 8.56 5.72 8.42C5.49333 8.28 5.12667 8.16 4.62 8.06C4.02 7.94 3.51667 7.71667 3.11 7.39C2.71 7.06333 2.51 6.60667 2.51 6.02C2.51 5.60667 2.61667 5.24333 2.83 4.93C3.04333 4.61667 3.33667 4.37667 3.71 4.21C4.09 4.04333 4.52 3.96 5 3.96C5.59333 3.96 6.08667 4.08 6.48 4.32C6.87333 4.55333 7.2 4.87 7.46 5.27L6.45 6.09C6.24333 5.76333 6.02667 5.53 5.8 5.39C5.57333 5.25 5.30667 5.18 5 5.18C4.65333 5.18 4.38667 5.24667 4.2 5.38C4.02 5.51333 3.93 5.69333 3.93 5.92C3.93 6.1 3.98333 6.24667 4.09 6.36C4.19667 6.46667 4.34333 6.55667 4.53 6.63C4.71667 6.69667 4.97667 6.77 5.31 6.85C5.78333 6.96333 6.17333 7.09 6.48 7.23C6.78667 7.37 7.03333 7.57333 7.22 7.84C7.41333 8.10667 7.51 8.46333 7.51 8.91C7.51 9.63 7.27667 10.1833 6.81 10.57C6.34333 10.95 5.72 11.14 4.94 11.14ZM11.8091 11.14C10.9158 11.14 10.2191 10.91 9.71914 10.45C9.21914 9.99 8.96914 9.29333 8.96914 8.36V4.1H10.4291V8.24C10.4291 8.76667 10.5491 9.16333 10.7891 9.43C11.0358 9.69 11.3758 9.82 11.8091 9.82C12.2425 9.82 12.5791 9.69 12.8191 9.43C13.0658 9.16333 13.1891 8.76667 13.1891 8.24V4.1H14.6491V8.36C14.6491 9.29333 14.3991 9.99 13.8991 10.45C13.3991 10.91 12.7025 11.14 11.8091 11.14ZM17.8892 11H16.4492V4.1H18.2692L20.8892 8.96V4.1H22.3292V11H20.5292L17.8892 6.12V11ZM26.9646 11.14C26.0713 11.14 25.3746 10.91 24.8746 10.45C24.3746 9.99 24.1246 9.29333 24.1246 8.36V4.1H25.5846V8.24C25.5846 8.76667 25.7046 9.16333 25.9446 9.43C26.1913 9.69 26.5313 9.82 26.9646 9.82C27.3979 9.82 27.7346 9.69 27.9746 9.43C28.2213 9.16333 28.3446 8.76667 28.3446 8.24V4.1H29.8046V8.36C29.8046 9.29333 29.5546 9.99 29.0546 10.45C28.5546 10.91 27.8579 11.14 26.9646 11.14ZM34.5047 11.14C33.878 11.14 33.3214 10.9967 32.8347 10.71C32.348 10.4167 31.968 10 31.6947 9.46C31.4214 8.92 31.2847 8.28333 31.2847 7.55C31.2847 6.81667 31.4214 6.18 31.6947 5.64C31.968 5.1 32.348 4.68667 32.8347 4.4C33.3214 4.10667 33.878 3.96 34.5047 3.96C35.7514 3.96 36.6314 4.44333 37.1447 5.41L36.0547 6.26C35.9014 5.95333 35.688 5.71333 35.4147 5.54C35.1414 5.36667 34.838 5.28 34.5047 5.28C34.1714 5.28 33.8714 5.36667 33.6047 5.54C33.338 5.71333 33.128 5.97333 32.9747 6.32C32.8214 6.66 32.7447 7.07 32.7447 7.55C32.7447 8.03 32.8214 8.44333 32.9747 8.79C33.128 9.13 33.338 9.38667 33.6047 9.56C33.8714 9.73333 34.1714 9.82 34.5047 9.82C34.8314 9.82 35.1314 9.73333 35.4047 9.56C35.6847 9.38667 35.9014 9.14667 36.0547 8.84L37.1447 9.69C36.8914 10.1633 36.538 10.5233 36.0847 10.77C35.638 11.0167 35.1114 11.14 34.5047 11.14ZM41.3779 11.14C40.4846 11.14 39.7879 10.91 39.2879 10.45C38.7879 9.99 38.5379 9.29333 38.5379 8.36V4.1H39.9979V8.24C39.9979 8.76667 40.1179 9.16333 40.3579 9.43C40.6046 9.69 40.9446 9.82 41.3779 9.82C41.8112 9.82 42.1479 9.69 42.3879 9.43C42.6346 9.16333 42.7579 8.76667 42.7579 8.24V4.1H44.2179V8.36C44.2179 9.29333 43.9679 9.99 43.4679 10.45C42.9679 10.91 42.2712 11.14 41.3779 11.14Z" fill="white"/>
</svg>
