<svg width="27" height="15" viewBox="0 0 27 15" fill="none" xmlns="http://www.w3.org/2000/svg">
<rect width="26.16" height="15" rx="3" fill="#5865F2"/>
<path d="M6.54 11.14C5.64667 11.14 4.95 10.91 4.45 10.45C3.95 9.99 3.7 9.29333 3.7 8.36V4.1H5.16V8.24C5.16 8.76667 5.28 9.16333 5.52 9.43C5.76667 9.69 6.10667 9.82 6.54 9.82C6.97333 9.82 7.31 9.69 7.55 9.43C7.79667 9.16333 7.92 8.76667 7.92 8.24V4.1H9.38V8.36C9.38 9.29333 9.13 9.99 8.63 10.45C8.13 10.91 7.43333 11.14 6.54 11.14ZM14.3701 11H12.9101V8.15L10.6201 4.1H12.2301L13.6401 6.75L15.0501 4.1H16.6601L14.3701 8.15V11ZM19.9327 11.14C19.3527 11.14 18.8394 10.99 18.3927 10.69C17.9461 10.39 17.5994 9.97 17.3527 9.43C17.1061 8.88333 16.9827 8.25667 16.9827 7.55C16.9827 6.85 17.1127 6.23 17.3727 5.69C17.6394 5.15 18.0227 4.72667 18.5227 4.42C19.0294 4.11333 19.6327 3.96 20.3327 3.96C20.9261 3.96 21.4561 4.08667 21.9227 4.34C22.3961 4.59333 22.7527 4.95 22.9927 5.41L21.8627 6.22C21.5227 5.59333 21.0161 5.28 20.3427 5.28C19.7294 5.28 19.2594 5.48 18.9327 5.88C18.6061 6.27333 18.4427 6.83 18.4427 7.55C18.4427 8.27667 18.6061 8.83667 18.9327 9.23C19.2594 9.62333 19.7294 9.82 20.3427 9.82C20.6161 9.82 20.8661 9.77 21.0927 9.67C21.3261 9.56333 21.5061 9.42 21.6327 9.24V8.38H20.0427V7.08H23.0527V11H21.8727L21.6827 10.34C21.2894 10.8733 20.7061 11.14 19.9327 11.14Z" fill="white"/>
</svg>
