<svg xmlns:xlink="http://www.w3.org/1999/xlink" xmlns="http://www.w3.org/2000/svg" height="140" viewBox="0 0 24 24" width="140"><path d="m19.1 6.9c-0.5-1.3-1.2-2.2-3.5-2.2h-11.1c-0.7 0-1.8 0.5-1.9 2.2-0.3 4.5-0.2 7.1 0.2 9.1 0.4 2.1 2.4 3.4 4.5 3.4h12.5c0.9 0 1.7-0.5 2-1.3 0.9-2.4-0.2-5-2.7-11.2z" fill="url(#paint0_linear_22_1025)"/><path d="m10 15.8h10.2c0.6 0 0.9-0.3 0.6-1.4q-1.2-4.1-2.9-8c-0.8-1.7-1.4-1.7-3-1.7h-10.5c2.3 0 2.4 0 3.5 9.7 0.3 1.4 0.7 1.4 2.1 1.4z" fill="url(#paint1_linear_22_1025)"/><path d="m16.8 9.8c0.4-0.2 0.6-0.9 0.3-1.7-0.2-0.8-0.8-1.3-1.3-1.2-0.4 0.2-0.6 1-0.3 1.7 0.2 0.8 0.8 1.4 1.3 1.2z" fill="#57F287"/><path d="m10 9.8c0.5-0.1 0.7-0.9 0.4-1.7-0.3-0.8-0.9-1.3-1.4-1.2-0.4 0.2-0.6 1-0.3 1.8 0.3 0.8 0.9 1.3 1.3 1.1z" fill="#57F287"/><path d="m16.3 11.5c0 1.5-0.7 2.6-2 2.6-1.2 0-2.6-1.1-3.4-2.6z" fill="#57F287"/><defs>
<linearGradient id="paint0_linear_22_1025" x1="8.1" y1="23.6" x2="15.5" y2="6.6" gradientUnits="userSpaceOnUse">
<stop offset=".18" stop-color="#3442D9"/>
<stop offset=".748" stop-color="#737FFF"/>
</linearGradient>
<linearGradient id="paint1_linear_22_1025" x1="11.2" y1="5.8" x2="13.6" y2="15.6" gradientUnits="userSpaceOnUse">
<stop/>
<stop offset="0.11" stop-color="#050409"/>
<stop offset="0.7" stop-color="#1B1934"/>
<stop offset="1" stop-color="#242145"/>
</linearGradient>
</defs></svg>