<svg xmlns:xlink="http://www.w3.org/1999/xlink" xmlns="http://www.w3.org/2000/svg" height="140" viewBox="0 0 24 24" width="140"><path d="m20.1 12.2c0 0.7-1.2 1.2-1.5 1.9-0.2 0.7 0.4 1.9 0 2.5-0.4 0.5-1.7 0.3-2.3 0.7-0.6 0.4-0.7 1.7-1.4 2-0.7 0.2-1.6-0.8-2.4-0.8-0.7 0-1.6 1-2.3 0.8-0.7-0.2-0.9-1.6-1.4-2-0.6-0.4-1.9-0.2-2.4-0.7-0.4-0.6 0.3-1.8 0-2.5-0.2-0.7-1.4-1.2-1.4-1.9 0-0.8 1.2-1.3 1.4-2 0.3-0.7-0.4-1.9 0-2.5 0.4-0.5 1.8-0.3 2.4-0.7 0.6-0.4 0.7-1.7 1.4-2 0.7-0.3 1.6 0.8 2.3 0.8 0.8 0 1.7-1 2.4-0.8 0.6 0.2 0.8 1.6 1.4 2 0.6 0.4 1.9 0.2 2.3 0.7 0.4 0.6-0.2 1.8 0 2.5 0.2 0.7 1.5 1.2 1.5 2z" fill="#5865f2"/><path d="m15 11l-1.3 0.9c-0.2 0.1-0.3 0.1-0.5 0-0.1-0.1-0.3-0.2-0.4-0.3-0.4-0.1-0.7 0-0.9 0.2l-0.5 0.3-2.4 1.6c-0.5 0.2-1.2 0.1-1.5-0.4-0.3-0.5-0.1-1.1 0.3-1.5l2.8-1.9c0.8-0.5 1.7-0.7 2.6-0.5 0.7 0.2 1.3 0.6 1.8 1.2 0.2 0.1 0.1 0.3 0 0.4z" fill="white"/><path d="m17.7 12.3c0 0.4-0.2 0.8-0.5 1l-2.9 1.9c-0.6 0.3-1.1 0.5-1.8 0.5-0.3 0-0.4 0-0.7-0.1-0.8-0.2-1.3-0.5-1.8-1.1-0.1-0.2 0-0.4 0.1-0.5l1.3-0.8c0.1-0.1 0.3-0.1 0.4 0 0.2 0.1 0.3 0.2 0.4 0.3 0.4 0 0.7 0 1-0.2l0.6-0.4 1.9-1.3 0.3-0.2c0.5-0.3 1.2-0.2 1.5 0.3 0.2 0.3 0.2 0.5 0.2 0.6z" fill="white"/></svg>