<svg xmlns:xlink="http://www.w3.org/1999/xlink" xmlns="http://www.w3.org/2000/svg" height="140" viewBox="0 0 24 24" width="140"><path d="m20.1 12.2c0 0.7-1.2 1.2-1.5 1.9-0.2 0.7 0.4 1.9 0 2.5-0.4 0.5-1.7 0.3-2.3 0.7-0.6 0.4-0.7 1.7-1.4 2-0.7 0.2-1.6-0.8-2.4-0.8-0.7 0-1.6 1-2.3 0.8-0.7-0.2-0.9-1.6-1.4-2-0.6-0.4-1.9-0.2-2.4-0.7-0.4-0.6 0.3-1.8 0-2.5-0.2-0.7-1.4-1.2-1.4-1.9 0-0.8 1.2-1.3 1.4-2 0.3-0.7-0.4-1.9 0-2.5 0.4-0.5 1.8-0.3 2.4-0.7 0.6-0.4 0.7-1.7 1.4-2 0.7-0.3 1.6 0.8 2.3 0.8 0.8 0 1.7-1 2.4-0.8 0.6 0.2 0.8 1.6 1.4 2 0.6 0.4 1.9 0.2 2.3 0.7 0.4 0.6-0.2 1.8 0 2.5 0.2 0.7 1.5 1.2 1.5 2z" fill="#23a559"/><path d="m12 15.5l-3.2-2.4 0.9-1.3 1.9 1.5 3.4-4.5 1.3 0.9z" fill="white"/>
</svg>